PathFileType	4	(X/Y/Z)	S01_Demo_SingleTrial_0-100.trc
DataRate	CameraRate	NumFrames	NumMarkers	Units	OrigDataRate	OrigDataStartFrame	OrigNumFrames
60	60	7	21	m	60	37	100
Frame#	Time	RHip			RKnee			RAnkle			RBigToe			RSmallToe			RHeel			LHip			LKnee			LAnkle			LBigToe			LSmallToe			LHeel			Neck			Head			Nose			RShoulder			RElbow			RWrist			LShoulder			LElbow			LWrist		
		X1	Y1	Z1	X2	Y2	Z2	X3	Y3	Z3	X4	Y4	Z4	X5	Y5	Z5	X6	Y6	Z6	X7	Y7	Z7	X8	Y8	Z8	X9	Y9	Z9	X10	Y10	Z10	X11	Y11	Z11	X12	Y12	Z12	X13	Y13	Z13	X14	Y14	Z14	X15	Y15	Z15	X16	Y16	Z16	X17	Y17	Z17	X18	Y18	Z18	X19	Y19	Z19	X20	Y20	Z20	X21	Y21	Z21
38	0.6333333333333333	-0.19848825032089168	0.9613011012772176	-1.1035854420524125	-0.4937965645629653	0.6749947437909931	-1.009488114303562	-0.6620658662874588	0.32660421396370093	-1.0876968633261985	-0.7252367654255827	0.2726998938962262	-0.9530755331396857	-0.7179534741154395	0.24213784379504946	-1.012773684529545	-0.669481755327623	0.28795975469979923	-1.1300430204421583	-0.0154658749146734	0.8639679283854432	-1.123094869688368	-0.06390703970819954	0.5075414607194808	-0.9195521436608725	-0.015805112930230476	0.14257000469570222	-1.1579732986977702	-0.00842889811907535	0.07356674194774954	-1.002270157979486	0.020511628234950098	0.07751785301657142	-1.0370530206007826	-0.007184790182256565	0.11199393072396237	-1.2129174718898073	0.22782815217694982	1.3394975355050438	-1.0616178330998642	0.3806380623987563	1.531761754109942	-0.9072197735597066	0.31049570340683547	1.3914936872304438	-0.9020012591623123	0.0788701622940192	1.4104999221433088	-1.0882620929381035	-0.18288936842235012	1.4433069975753372	-1.2098771320018182	-0.253821344671836	1.602155295318898	-1.0040430350912881	0.32612565418205613	1.2097966660490456	-1.1107936912789478	0.36028021625023887	0.9097373953178252	-1.0962830188807031	0.3420886811674344	0.6668600527843597	-0.9948534055243017
39	0.65	-0.2000466401810195	0.9640827552889466	-1.0958771322425482	-0.5014064041204347	0.6823335048535539	-0.9987790274386511	-0.684402947287084	0.34008161795432046	-1.0721613387917852	-0.7500818146535607	0.2923475548959629	-0.9332936217662451	-0.7381510538177206	0.25508367859246706	-1.0018041886701614	-0.6927949028978401	0.3009059874781903	-1.115786606481922	-0.021359404549573906	0.8631456270982948	-1.121423935829821	-0.06492155673092284	0.507649515353611	-0.9156761326375428	-0.01634221999072166	0.1431077026517878	-1.1564607128048687	-0.00858155404129258	0.0738981926295679	-1.0014173990874105	0.02078937913688283	0.07753738279849141	-1.0365911826824905	-0.008282532869271806	0.1133145388483382	-1.2117788891349872	0.22969782456942123	1.3357877474704292	-1.0566898860935383	0.3866464176004105	1.5242761428449496	-0.9095414347182535	0.3157058798839708	1.3872240752861822	-0.8973973468356741	0.08081757672801906	1.4083839973012087	-1.0820886087064587	-0.18028879557832195	1.448288456660034	-1.200168027700018	-0.24027438272928253	1.6118984550991167	-0.9880896570549262	0.32993657343194366	1.2056551678490082	-1.0981677831849017	0.36319097925003596	0.9053128609405584	-1.0967604512282383	0.3479301736165294	0.6610476831587662	-0.9923945160212725
40	0.6666666666666666	-0.20138582992581353	0.9680184444705396	-1.089333579772643	-0.507640209994733	0.6902848667851634	-0.9865698900461753	-0.7069043927865314	0.35394325459874304	-1.0559268049420214	-0.7735538735377059	0.3134543756231354	-0.9086281122582203	-0.7586381789521851	0.27021212496670355	-0.9904302759243816	-0.7148822697764803	0.3151670674056016	-1.1018795372037495	-0.02713813032337577	0.8624795472215491	-1.1210090978909897	-0.06566871694407957	0.5078898371278371	-0.9100274091483401	-0.016711678844216753	0.14346890033778067	-1.154606052439305	-0.008722601005345089	0.07480254115826451	-1.0000206777233236	0.02118668233969081	0.07804448182155514	-1.0354474686257054	-0.009494724236755868	0.11432066579652048	-1.209455031109906	0.2308214991437071	1.3317638405568348	-1.0534585888994257	0.3924216930828736	1.5174897857914487	-0.9130890661432968	0.3199582817016317	1.3829525296564997	-0.8914572541965822	0.08203828591425805	1.4060901674312862	-1.0757232035495097	-0.1774287239638283	1.4539666359033223	-1.187173999440891	-0.2262754859425192	1.6206672155675828	-0.9718289861472735	0.33162986623942625	1.2012607309942591	-1.0916027095426442	0.3656398987212222	0.9012609110185095	-1.097212336014099	0.35479684285786023	0.6555981005724724	-0.9908012911472097
41	0.6833333333333333	-0.2040968488172154	0.9720004406600625	-1.0873529913879667	-0.5127151068078335	0.6984128301481334	-0.9738216740010233	-0.7289008926073084	0.36808893862196224	-1.0390382800921585	-0.7945885134273399	0.3350055272526192	-0.8808735781172533	-0.7783396771103409	0.2863374637107068	-0.9783086261465341	-0.7349979112007112	0.3308725668891489	-1.0881056021012618	-0.03256526987951528	0.8618831810973387	-1.1209012430278236	-0.066354504698228	0.5082296584814012	-0.9043565477487481	-0.016931289602661534	0.14364939121361261	-1.1529325986697787	-0.008770851478441078	0.07605357143951368	-0.9983715337615615	0.021426575289313993	0.07886755797050839	-1.034085342013092	-0.010878803047378822	0.1148797163817059	-1.2064313263783042	0.23159434028612344	1.327335415924697	-1.0503672858546418	0.3982741760342425	1.511431661743552	-0.9163040742682432	0.3231773050205815	1.3783532169058124	-0.8840982713884666	0.08339470566270932	1.4039305996288096	-1.0680497594828915	-0.17453155865754377	1.4599638874451268	-1.1722600342200376	-0.21184223845761563	1.6288301255572892	-0.9543870315587679	0.3299701367826356	1.1967307377065588	-1.094441704113704	0.36777208921789034	0.897487371406933	-1.09746774072082	0.36185155046779793	0.6506522100781877	-0.990200968374267
42	0.7	-0.20882615634391521	0.975434520024119	-1.0913211642232286	-0.5170405953493459	0.7064643046381717	-0.9608007263763283	-0.749240848636216	0.38239840891178173	-1.0217422161900196	-0.8119945072833253	0.35515483420445965	-0.8527791624669055	-0.7964850461417927	0.30303591080837444	-0.9650327292120962	-0.752873670035662	0.3478137991467357	-1.0740427152030836	-0.03759163632424984	0.8614968471907494	-1.1208069861367516	-0.0670252794908169	0.508604404199523	-0.8997163169122829	-0.016911587183016313	0.14359017961905146	-1.1517453312366914	-0.008596100008069055	0.07742403578926041	-0.9969212930667486	0.021573569121530283	0.079729330954661	-1.0328750470082584	-0.012210908284974382	0.11499621443203185	-1.2034198371549265	0.2328124300542801	1.322896059260524	-1.0447072202060068	0.40438930932036166	1.5063474338164025	-0.9168727852698504	0.3252692737187618	1.3735303749782262	-0.8752595773783369	0.08538159699615444	1.4021389067176389	-1.0589004259747383	-0.17175642180172157	1.465863162564652	-1.1565884180728594	-0.1969499989048009	1.63656359137862	-0.9346977412290871	0.32550060566226874	1.1923512750247556	-1.1046785314268435	0.3699301689751862	0.893975325105854	-1.09721674136807	0.3684905067941902	0.6462765164922807	-0.9903406662489161
43	0.7166666666666667	-0.21509680567299658	0.978326743756873	-1.1000322130669469	-0.52101098770712	0.7143746456707494	-0.9474593682084778	-0.7667426725784945	0.39660300542469645	-1.0047220597586877	-0.8254717624980615	0.37226932764038684	-0.8276729876853525	-0.8128538165128909	0.32043850929512796	-0.9496062793262429	-0.7687322626691665	0.36529678661498216	-1.0593486081006975	-0.04218127670424415	0.8615699164420256	-1.1206238605267762	-0.06761185254139751	0.5089582802009617	-0.8965531136226255	-0.016584328709934464	0.14318178575922794	-1.151079278141287	-0.008116345992234002	0.07861471535647656	-0.9960504478774544	0.021830742303566446	0.08029544153766892	-1.0321208231242358	-0.013051371685608106	0.11475196411511683	-1.20122443222336	0.235057780037155	1.3190736251028907	-1.0346719282503114	0.41077482828127326	1.5024773169921883	-0.9126831386521894	0.3264495352559821	1.3689041702377422	-0.8652522826170067	0.08751633985819532	1.4007037291244284	-1.0501963115979573	-0.16920010204576647	1.4713626497173582	-1.1409497595487177	-0.18186232848760703	1.643710523896159	-0.9133717096020635	0.31988815446859187	1.1883660705500734	-1.1167989063065633	0.3724468530537743	0.8907911623403633	-1.0961544708662287	0.3745009597094411	0.6424738888517934	-0.9908081163472662
44	0.7333333333333333	-0.22201641231380742	0.9808787789422428	-1.1109098906234152	-0.5248024523184824	0.7221394674587218	-0.9338999860907534	-0.7807651354772461	0.4102422215089427	-0.9886428127078862	-0.8356316002387597	0.3864769292303755	-0.8063664471745726	-0.8276478322940726	0.3389591040066096	-0.9303734225932982	-0.7827192859733736	0.3822315528482396	-1.0442524113721738	-0.04631384065677672	0.8624119612437264	-1.1198259590886217	-0.06814190070834801	0.5093007448023645	-0.8950826924431406	-0.016005057185383482	0.14245147467321054	-1.1507182745071924	-0.007428976280415107	0.07931341747248208	-0.9959544089442749	0.02229850889235329	0.0803346986910024	-1.0319900085814693	-0.013038535734911408	0.11434791961051977	-1.2003696889767197	0.23812801267783051	1.3162350385450086	-1.0210139759241794	0.41725808401680087	1.4996724950069233	-0.9027852525589816	0.3273195604526524	1.364898971994067	-0.8549341483629732	0.08918541378556366	1.3995757780857039	-1.0437323357443022	-0.16675898941354658	1.4764047682091304	-1.1253277891529936	-0.16712252501453953	1.649839826645228	-0.8927086706367682	0.31465054845083795	1.184808870381344	-1.1257338157766112	0.37542411801827963	0.8881052223455137	-1.0939907037122238	0.3800328066943935	0.6393019383923055	-0.9912850583704139
